<?xml version="1.0" encoding="UTF-8"?>
<svg id="_레이어_1" data-name="레이어 1" xmlns="http://www.w3.org/2000/svg" viewBox="0 0 330.53 56.74">
  <defs>
    <style>
      .cls-1 {
        fill: #fff;
      }
    </style>
  </defs>
  <path id="G" class="cls-1" d="M50.34,.04s-.04-.05-.06-.03c-.5,.49-2.52,3.81-5.1,3.16C45.18,3.18,.65-9.09,0,30.28,0,30.28-1.28,56.74,30.34,56.09c0,0,10.64-.53,16.94-3.04,1.08-.43,1.77-1.5,1.77-2.66v-9.92c0-.23,.09-.46,.26-.62,.93-.91,4.18-3.99,7.27-5.36,.17-.08,.12-.33-.07-.33h-7.29c-.1,0-.19,.06-.23,.15-.21,.46-1.02,1.9-3.17,2.43,0,0-3.1,.62-5.05-2.4-.07-.11-.2-.19-.33-.19h-9.12c-.14,0-.17,.19-.04,.23,1.52,.46,4.63,1.77,7.8,5.25,.18,.2,.29,.47,.29,.75v8.57c0,.42-.26,.8-.65,.95-4.06,1.57-25.82,8.56-26.23-21.88,0,0-2.16-22.91,18.49-22.27,0,0,14-1.27,19.25,13.24,.02,.06,.11,.05,.11-.02V.04Z"/>
  <path id="a" class="cls-1" d="M91.64,51.66v-16.33c0-2.64-.51-5.28-1.66-7.66-3.96-8.18-11.89-7.72-11.89-7.72-9.8,.47-13.86,7.68-15.36,11.64-.48,1.27-1.41,2.35-2.67,2.87-1.33,.55-1.33,1.62-1.33,1.62-.65,2.58,5.16,1.29,5.16,1.29,5.16-1.29,7.1-3.87,8.39-7.74,.23-.7,.39-1.34,.55-1.93,.37-1.35,1.7-2.99,2.98-3.56,1.55-.68,2.85-.37,3.8,.15,1.06,.58,1.7,1.71,1.7,2.92v2.84c0,1.64-.72,3.2-2,4.23-3.81,3.05-9.61,4.39-9.61,4.39-13.55,4.52-9.68,11.62-9.68,11.62,1.25,2.01,2.52,3.33,3.59,4.2,1.3,1.05,2.93,1.61,4.6,1.61h4.71c4.52-.65,5.81-2.58,5.81-2.58,3.87-4.52,4.52-1.29,4.52-1.29,.65,3.23,2.58,3.23,2.58,3.23h6.45c4.52-1.29-.65-3.78-.65-3.78Zm-10.33-6.3c0,.81-.3,1.59-.85,2.19-2.08,2.27-7.45,7.82-10.25,1.48-.68-1.54-.66-3.33,.13-4.81,1.08-2.02,3.63-5.13,9.65-6.04,.69-.1,1.3,.44,1.3,1.13v6.05Z"/>
  <path id="a-2" data-name="a" class="cls-1" d="M292.34,52.31v-16.33c0-2.64-.51-5.28-1.66-7.66-3.96-8.18-11.89-7.72-11.89-7.72-9.8,.47-13.86,7.68-15.36,11.64-.48,1.27-1.41,2.35-2.66,2.87-1.33,.55-1.33,1.62-1.33,1.62-.65,2.58,5.16,1.29,5.16,1.29,5.16-1.29,7.1-3.87,8.39-7.74,.23-.69,.39-1.33,.55-1.91,.36-1.3,1.62-2.92,2.84-3.51,1.61-.77,2.96-.46,3.94,.08,1.06,.58,1.7,1.71,1.7,2.92v2.84c0,1.64-.72,3.2-2,4.23-3.81,3.05-9.61,4.39-9.61,4.39-13.55,4.52-9.68,11.62-9.68,11.62,1.25,2,2.51,3.32,3.58,4.19,1.3,1.06,2.94,1.62,4.62,1.62h4.71c4.52-.65,5.81-2.58,5.81-2.58,3.87-4.52,4.52-1.29,4.52-1.29,.65,3.23,2.58,3.23,2.58,3.23h6.45c4.52-1.29-.65-3.78-.65-3.78Zm-10.33-6.3c0,.82-.31,1.6-.86,2.2-2.08,2.27-7.45,7.8-10.24,1.47-.68-1.54-.66-3.33,.13-4.81,1.08-2.02,3.63-5.13,9.66-6.04,.68-.1,1.3,.44,1.3,1.13v6.05Z"/>
  <path id="l" class="cls-1" d="M91.11,3.87c.5,.25,2.62,1.4,4.91,4.12,.52,.61,.79,1.4,.79,2.2V47.51c0,1.58,.52,3.14,1.56,4.33,1.81,2.05,5.69,4.24,14.02,3.65,.12,0,.15-.17,.03-.21-1.54-.53-5.93-2.22-5.93-4.35V9.86c0-.79,.28-1.55,.81-2.15,.7-.79,2.02-2,4.47-3.74,.07-.05,.04-.15-.04-.15h-20.6s-.04,.04-.02,.05Z"/>
  <path id="l-2" data-name="l" class="cls-1" d="M113.05,3.87c.5,.25,2.62,1.4,4.91,4.12,.52,.61,.79,1.4,.79,2.2V47.51c0,1.58,.52,3.14,1.56,4.33,1.81,2.05,5.69,4.24,14.02,3.65,.12,0,.15-.17,.03-.21-1.54-.53-5.93-2.22-5.93-4.35V9.86c0-.79,.28-1.55,.81-2.15,.7-.79,2.02-2,4.47-3.74,.07-.05,.04-.15-.04-.15h-20.6s-.04,.04-.02,.05Z"/>
  <path id="e" class="cls-1" d="M169.71,36.51c-.2-.31-.57-.68-1.23-1.07-.81-.48-1.44-1.22-1.71-2.12-1.06-3.52-4.78-11.42-13.81-12.07,0,0-14.84-2.58-18.07,14.84s14.2,19.36,17.53,20.04c0,0,11.51,1.26,16.02-8.42,0,0,1.94-3.23-3.87,0,0,0-18.37,7.35-21.11-8.97-.12-.71,.44-1.36,1.15-1.36h24.63c.45,0,.71-.5,.47-.87Zm-12.87-3h-13.07c-.27,0-.49-.24-.46-.5,.28-2.84,1.17-4.73,2.22-5.99,2.55-3.05,7.36-3.14,9.98-.15,1.69,1.93,2.04,4.52,2.11,5.83,.02,.45-.33,.82-.78,.82Z"/>
  <path id="n" class="cls-1" d="M170.37,22.54s3.74-3.74,13.69,4.72c.27,.23,.67,.19,.88-.09,1.17-1.54,5.2-5.92,13.18-5.92,0,0,5.15,0,8.55,5.99,.76,1.34,1.13,2.86,1.13,4.39v17.62c0,1.19,.4,2.35,1.18,3.24,.67,.76,1.72,1.63,3.32,2.4,.28,.13,.18,.56-.13,.56h-4.73c-.58,0-1.15-.19-1.62-.53l-1.89-1.4s-1.29-1.29-2.58,0l-1.03,1.01c-.6,.59-1.41,.92-2.26,.92h-3.38c-.23,0-.32-.3-.13-.43,1.49-.94,4.86-3.23,4.86-4.74v-16.89c0-.82-.33-1.6-.92-2.17-1.99-1.92-6.95-5.55-12.11-.34-.75,.76-1.17,1.8-1.17,2.87v16.41c0,.65,.12,1.3,.36,1.9,.38,.96,1.13,2.31,2.45,3.15,.11,.07,.05,.23-.07,.23h-4.27c-.37,0-.72-.15-.97-.43l-1.38-1.51s-.65-1.29-2.58,0l-2.38,1.57c-.37,.24-.8,.37-1.23,.37h-4.2c-.12,0-.15-.16-.05-.2,.97-.41,3.07-1.46,4.59-3.33,.47-.57,.69-1.31,.69-2.05V30.21c0-1.72-.88-3.33-2.33-4.26-.67-.43-.1-.1-1.55-.83,0,0-3.23-1.29-1.94-2.58Z"/>
  <path id="d" class="cls-1" d="M255.56,52.22s-4.52-1.29-4.52-4.52V9.17c0-1.91,.83-3.75,2.32-4.95,.79-.64,1.84-1.22,3.24-1.61,.04-.01,.04-.07,0-.07h-5.9c-.29,0-.55,.16-.7,.4-.43,.73-1.54,2.18-3.47,2.18,0,0-2.24,0-3.59-2.09-.2-.31-.54-.49-.9-.49h-5.34c-.1,0-.13,.13-.04,.17,.78,.39,2.66,1.42,4.05,2.96,.85,.94,1.31,2.17,1.31,3.44v12.32c0,.23-.22,.39-.43,.32-2.8-.94-18.44-5.44-25.39,8.01-1.3,2.51-1.93,5.05-1.93,8.13v6.23s0,10.04,15.49,11.98c0,0,9.03,.65,10.97-5.16,0,0,1.94-5.16,3.87,0,0,0,1.94,7.74,12.26,3.87,0,0,3.23-1.29-1.29-2.58Zm-13.94-16.04c-.06,3.38-.54,5.94-1.26,7.87-2.18,5.9-9.86,7.28-13.81,2.38-3.37-4.19-2.84-10.4-2.84-10.4-.23-12.97,9.26-12.2,9.26-12.2,9.03,0,8.64,12.36,8.64,12.36Z"/>
  <path id="r" class="cls-1" d="M311.42,25.31c2.26-2.17,8.14-6.35,15.84-.94,2.48,1.74,3.76,4.77,3.09,7.73s-2.87,6.58-8.98,7.75c-.58,.11-1.19,.04-1.71-.24s-.85-.79,.39-1.56c.92-.57,1.6-1.45,1.85-2.51,.75-3.15,1.51-9.3-3.75-9.77,0,0-5.16-.65-5.16,5.16v18.48c0,.91,.2,1.82,.64,2.62,.68,1.27,2.05,2.91,4.78,3.79,.16,.05,.13,.28-.04,.28h-5.32c-.46,0-.9-.14-1.28-.4l-1.36-.95s-1.94-1.87-3.87,.06l-.88,.81c-.34,.31-.78,.48-1.23,.48h-5.93c-.15,0-.19-.2-.06-.26,1.07-.48,3.21-1.66,4.73-4.05,.54-.84,.79-1.84,.79-2.84V31.79c0-2.5-1.49-4.82-3.83-5.68-.14-.05-.27-.11-.42-.14-.91-.21-1.41-.63-1.88-1.25-.74-.98-1.26-2.3,1.28-2.42,1.59-.07,3.13,.51,4.37,1.51,.99,.81,2.38,1.79,3.79,2.35s3.05,.19,4.16-.87Z"/>
</svg>