<svg width="19" height="19" viewBox="0 0 19 19" fill="none" xmlns="http://www.w3.org/2000/svg">
<g clip-path="url(#clip0_364_3047)">
<path d="M18.411 16.1685L13.9104 12.3412C13.4449 11.922 12.9473 11.7309 12.5459 11.7487C13.6087 10.5042 14.25 8.89036 14.25 7.12573C14.25 3.19036 11.0604 0.000732422 7.125 0.000732422C3.18963 0.000732422 0 3.19036 0 7.12573C0 11.0611 3.18963 14.2507 7.125 14.2507C8.88962 14.2507 10.5034 13.6095 11.7479 12.5467C11.7289 12.948 11.9213 13.4456 12.3405 13.9111L16.1678 18.4117C16.8233 19.1397 17.8932 19.2014 18.5464 18.5483C19.1995 17.8952 19.1378 16.824 18.4098 16.1697L18.411 16.1685ZM7.125 11.8745C4.50181 11.8745 2.375 9.74773 2.375 7.12455C2.375 4.50136 4.50181 2.37454 7.125 2.37454C9.74819 2.37454 11.875 4.50136 11.875 7.12455C11.875 9.74773 9.74819 11.8745 7.125 11.8745Z" fill="#FF9264"/>
</g>
<defs>
<clipPath id="clip0_364_3047">
<rect width="19" height="19" fill="white"/>
</clipPath>
</defs>
</svg>
